<?xml version="1.0" encoding="utf-8"?>
<!-- Generator: Adobe Illustrator 19.0.0, SVG Export Plug-In . SVG Version: 6.00 Build 0)  -->
<svg xmlns="http://www.w3.org/2000/svg" xmlns:xlink="http://www.w3.org/1999/xlink" version="1.1" id="Layer_1" x="0px" y="0px" viewBox="0 2 98 98" style="enable-background:new 0 2 98 98;" xml:space="preserve" width="512" height="512">
<style type="text/css">
	.st0{fill:url(#SVGID_1_);}
	.st1{fill:url(#SVGID_2_);}
</style>
<g>
	<linearGradient id="SVGID_1_" gradientUnits="userSpaceOnUse" x1="49" y1="6.25" x2="49" y2="97.1964">
		<stop offset="0" style="stop-color:#00EFD1"/>
		<stop offset="1" style="stop-color:#00ACEA"/>
	</linearGradient>
	<path class="st0" d="M72,49.4v-22c0-0.8-0.3-1.6-0.9-2.2l-19-17.8c-0.6-0.5-1.3-0.8-2.1-0.8H14.4c-2.8,0-5,2.2-5,5v69.1   c0,2.8,2.2,5,5,5h31.7c4.3,5.9,11.2,9.7,19,9.7c13,0,23.5-10.5,23.5-23.5C88.6,61.3,81.6,52.4,72,49.4z M53,16.5l8.4,7.9H53V16.5z    M42.9,79.7H15.4V12.6H47v14.8c0,1.7,1.3,3,3,3h16v18c-0.3,0-0.6,0-0.9,0c-13,0-23.5,10.5-23.5,23.5C41.6,74.6,42.1,77.3,42.9,79.7   z M65.1,89.4c-9.6,0-17.5-7.9-17.5-17.5c0-9.6,7.9-17.5,17.5-17.5c9.6,0,17.5,7.9,17.5,17.5C82.6,81.5,74.7,89.4,65.1,89.4z"/>
	<linearGradient id="SVGID_2_" gradientUnits="userSpaceOnUse" x1="65.15" y1="6.25" x2="65.15" y2="97.1964">
		<stop offset="0" style="stop-color:#00EFD1"/>
		<stop offset="1" style="stop-color:#00ACEA"/>
	</linearGradient>
	<path class="st1" d="M74.3,68.9h-6.2v-6.1c0-1.7-1.3-3-3-3c-1.7,0-3,1.3-3,3v6.1H56c-1.7,0-3,1.3-3,3c0,1.7,1.3,3,3,3h6.1v6.2   c0,1.7,1.3,3,3,3c1.7,0,3-1.3,3-3v-6.2h6.2c1.7,0,3-1.3,3-3C77.3,70.2,76,68.9,74.3,68.9z"/>
</g>
</svg>
